<svg aria-hidden="true" style="position: absolute; width: 0; height: 0; overflow: hidden;" version="1.1" xmlns="http://www.w3.org/2000/svg" xmlns:xlink="http://www.w3.org/1999/xlink">
<defs>
    <symbol id="icon-github" viewBox="0 0 32 32">
        <path d="M16 2.667c-0.015-0-0.033-0-0.050-0-7.364 0-13.333 5.97-13.333 13.333 0 5.875 3.8 10.863 9.076 12.639l0.094 0.027c0.667 0.107 0.88-0.307 0.88-0.667v-2.253c-3.693 0.8-4.48-1.747-4.48-1.747-0.259-0.845-0.798-1.539-1.506-1.991l-0.014-0.009c-1.213-0.827 0.093-0.8 0.093-0.8 0.87 0.116 1.603 0.616 2.033 1.321l0.007 0.012c0.501 0.879 1.432 1.461 2.499 1.461 0.507 0 0.983-0.131 1.396-0.362l-0.015 0.007c0.065-0.703 0.374-1.324 0.84-1.787l0-0c-2.853-0.293-6.027-1.44-6.027-6.52-0.001-0.045-0.002-0.097-0.002-0.149 0-1.335 0.507-2.552 1.339-3.468l-0.004 0.004c-0.173-0.474-0.273-1.021-0.273-1.592 0-0.698 0.15-1.361 0.419-1.958l-0.012 0.030s1.12-0.36 3.667 1.333c1-0.28 2.148-0.44 3.333-0.44s2.334 0.161 3.424 0.461l-0.090-0.021c2.547-1.72 3.667-1.333 3.667-1.333 0.257 0.567 0.407 1.23 0.407 1.928 0 0.571-0.1 1.118-0.284 1.625l0.011-0.033c0.828 0.912 1.335 2.129 1.335 3.464 0 0.053-0.001 0.105-0.002 0.157l0-0.008c0 5.093-3.12 6.213-6.093 6.547 0.573 0.576 0.928 1.37 0.928 2.247 0 0.077-0.003 0.154-0.008 0.229l0.001-0.010v3.653c0 0.36 0.213 0.787 0.893 0.667 5.37-1.804 9.17-6.792 9.17-12.667 0-7.358-5.96-13.324-13.316-13.333h-0.001z"></path>
    </symbol>
    <symbol id="icon-mail" viewBox="0 0 32 32">
        <path d="M26.667 5.333c2.209 0 4 1.791 4 4v13.333c0 2.209-1.791 4-4 4h-21.333c-2.209 0-4-1.791-4-4v-13.333c0-2.209 1.791-4 4-4h21.333zM25.671 8h-19.341l8.844 6.982c0.484 0.383 1.168 0.383 1.652 0l8.844-6.982zM4 9.558v13.108c0 0.736 0.597 1.333 1.333 1.333h21.333c0.736 0 1.333-0.597 1.333-1.333v-13.108l-9.521 7.517c-1.453 1.147-3.504 1.147-4.957 0l-9.521-7.517z"></path>
    </symbol>
    <symbol id="icon-instagram" viewBox="0 0 32 32">
        <path d="M2.667 8c0-2.946 2.388-5.333 5.333-5.333h16c2.945 0 5.333 2.388 5.333 5.333v16c0 2.945-2.388 5.333-5.333 5.333h-16c-2.946 0-5.333-2.388-5.333-5.333v-16zM8 5.333c-1.473 0-2.667 1.194-2.667 2.667v16c0 1.473 1.194 2.667 2.667 2.667h16c1.473 0 2.667-1.194 2.667-2.667v-16c0-1.473-1.194-2.667-2.667-2.667h-16zM16 12c-2.209 0-4 1.791-4 4s1.791 4 4 4c2.209 0 4-1.791 4-4s-1.791-4-4-4zM9.333 16c0-3.682 2.985-6.667 6.667-6.667s6.667 2.985 6.667 6.667c0 3.682-2.985 6.667-6.667 6.667s-6.667-2.985-6.667-6.667zM23.333 10.667c1.105 0 2-0.895 2-2s-0.895-2-2-2c-1.105 0-2 0.895-2 2s0.895 2 2 2z"></path>
    </symbol>
    <symbol id="icon-phone" viewBox="0 0 32 32">
        <path d="M13.383 7.088l0.865 1.551c0.781 1.399 0.467 3.235-0.763 4.465 0 0 0 0 0 0s-1.492 1.492 1.213 4.197c2.704 2.704 4.196 1.214 4.197 1.213 0 0 0 0 0 0 1.23-1.23 3.066-1.543 4.465-0.763l1.551 0.865c2.113 1.179 2.363 4.142 0.505 6-1.116 1.116-2.483 1.984-3.995 2.042-2.544 0.097-6.865-0.547-11.199-4.881s-4.978-8.655-4.882-11.199c0.057-1.511 0.926-2.878 2.042-3.994 1.857-1.857 4.82-1.608 6 0.505z"></path>
    </symbol>
</defs>
</svg>
